<svg width="24" height="24" viewBox="0 0 24 24" fill="none" xmlns="http://www.w3.org/2000/svg">
<g id="Status / 24 / Regular">
<path id="&#240;&#159;&#142;&#168;Color" d="M12 3.00005C13.1135 3.00005 14.1797 3.20225 15.164 3.57194L13.9808 4.76439C13.3498 4.59206 12.6856 4.50005 12 4.50005C7.85786 4.50005 4.5 7.85791 4.5 12.0001C4.5 13.4249 4.89727 14.7893 5.63583 15.9704C5.93764 16.4531 6.29368 16.9003 6.69639 17.303C7.09848 17.7052 7.5449 18.0608 8.02668 18.3624C9.20844 19.1021 10.5739 19.5 12 19.5C16.1421 19.5 19.5 16.1422 19.5 12.0001C19.5 11.3434 19.4156 10.7065 19.2571 10.0995L20.4505 8.89625C20.8059 9.86377 21 10.9092 21 12.0001C21 16.9706 16.9706 21 12 21C10.2904 21 8.64945 20.5218 7.23081 19.6338C6.65294 19.2721 6.1177 18.8457 5.63566 18.3636C5.1529 17.8808 4.72601 17.3446 4.36401 16.7657C3.4774 15.3479 3 13.7082 3 12.0001C3 7.02949 7.02944 3.00005 12 3.00005ZM21.0602 2.672L21.2062 2.80796C22.2817 3.8841 22.285 5.6272 21.2135 6.70732L14.9096 13.0618C14.7291 13.2438 14.5049 13.3764 14.2585 13.4472L10.0461 14.656C9.78064 14.7322 9.50371 14.5788 9.42754 14.3133C9.40169 14.2232 9.40168 14.1277 9.42752 14.0376L10.6378 9.81795C10.7074 9.57537 10.837 9.35427 11.0147 9.17512L17.3236 2.8152C18.3448 1.78582 19.9803 1.73651 21.0602 2.672ZM18.3886 3.87158L12.0796 10.2315L11.3669 12.7164L13.8447 12.0053L20.1486 5.65091C20.6057 5.19005 20.6349 4.46517 20.2371 3.97058L20.1415 3.86453C19.6555 3.38242 18.8707 3.38558 18.3886 3.87158Z" fill="#212121"/>
</g>
</svg>
