<svg width="99" height="21" viewBox="0 0 99 21" fill="none" xmlns="http://www.w3.org/2000/svg">
<g id="Misc Screens">
<g id="Splash Screen">
<g id="Microsoft Logo">
<path id="Shape" d="M34.945 12.0952L34.3549 13.7557H34.3058C34.2074 13.3813 34.0271 12.8115 33.7321 12.1278L30.5687 4.23244H27.4708V16.8162H29.5197V9.05104C29.5197 8.56267 29.5197 8.00918 29.5033 7.32546C29.4869 6.9836 29.4541 6.72314 29.4377 6.52779H29.4869C29.5852 7.01616 29.7 7.3743 29.7819 7.60221L33.5846 16.7836H35.0269L38.7968 7.52081C38.8788 7.30918 38.9607 6.88593 39.0427 6.52779H39.0919C39.0427 7.45569 39.0099 8.28593 38.9935 8.79058V16.7673H41.1735V4.19988H38.1904L34.945 12.0952ZM43.2387 7.74872H45.3695V16.7673H43.2387V7.74872ZM44.3205 3.93941C43.9599 3.93941 43.6649 4.06965 43.419 4.29755C43.1731 4.52546 43.042 4.81848 43.042 5.17662C43.042 5.51848 43.1731 5.81151 43.419 6.03941C43.6649 6.26732 43.9599 6.38127 44.3205 6.38127C44.6811 6.38127 44.9925 6.25104 45.222 6.03941C45.4678 5.81151 45.599 5.51848 45.599 5.17662C45.599 4.83476 45.4678 4.54174 45.222 4.29755C45.0089 4.06965 44.6975 3.93941 44.3205 3.93941ZM52.9256 7.66732C52.5322 7.58593 52.1225 7.53709 51.7291 7.53709C50.762 7.53709 49.877 7.74872 49.1394 8.17197C48.4018 8.59523 47.8117 9.18128 47.4347 9.91383C47.0414 10.6627 46.8447 11.5255 46.8447 12.5185C46.8447 13.3813 47.0414 14.1464 47.4183 14.8464C47.7953 15.5301 48.3198 16.0836 49.0246 16.458C49.6967 16.8324 50.4834 17.0278 51.3685 17.0278C52.3847 17.0278 53.2534 16.8162 53.9419 16.4255L53.9582 16.4092V14.4557L53.8763 14.5208C53.5649 14.7487 53.2043 14.9441 52.8437 15.058C52.4667 15.1883 52.1225 15.2534 51.8274 15.2534C50.9751 15.2534 50.3031 15.0092 49.8278 14.472C49.3361 13.951 49.0902 13.2348 49.0902 12.3394C49.0902 11.4115 49.3361 10.679 49.8442 10.1417C50.3523 9.60453 51.0243 9.32779 51.8438 9.32779C52.5322 9.32779 53.237 9.55569 53.8763 10.0115L53.9582 10.0766V8.00918L53.9419 7.9929C53.6632 7.87895 53.3518 7.74872 52.9256 7.66732ZM59.9572 7.60221C59.4327 7.60221 58.941 7.765 58.5149 8.10686C58.1543 8.39988 57.9084 8.82314 57.6953 9.32779H57.6789V7.74872H55.5481V16.7673H57.6789V12.1603C57.6789 11.379 57.8428 10.7278 58.2034 10.2557C58.564 9.76732 59.023 9.52314 59.5803 9.52314C59.777 9.52314 59.9736 9.57197 60.2195 9.60453C60.449 9.66965 60.6129 9.73476 60.7276 9.81616L60.8096 9.88128V7.765L60.7604 7.74872C60.6129 7.65104 60.3178 7.60221 59.9572 7.60221ZM75.0203 11.4929C74.3483 11.2162 73.9221 11.0045 73.7255 10.8255C73.5616 10.6627 73.4796 10.4348 73.4796 10.1417C73.4796 9.89755 73.5779 9.65337 73.8238 9.49058C74.0697 9.32779 74.3483 9.24639 74.7581 9.24639C75.1187 9.24639 75.4957 9.31151 75.8563 9.40918C76.2169 9.50686 76.5447 9.65337 76.8069 9.84872L76.8889 9.91383V7.92779L76.8397 7.91151C76.5938 7.81383 76.266 7.71616 75.8726 7.63476C75.4793 7.56965 75.1187 7.53709 74.8236 7.53709C73.8074 7.53709 72.9715 7.78127 72.3159 8.31848C71.6602 8.82314 71.3488 9.50686 71.3488 10.3045C71.3488 10.7278 71.4144 11.1022 71.5619 11.4115C71.7094 11.7208 71.9225 12.0138 72.2175 12.258C72.5125 12.4859 72.9387 12.7464 73.5288 12.9906C74.0205 13.2022 74.3975 13.365 74.6269 13.4952C74.8564 13.6255 75.0039 13.772 75.1187 13.8859C75.2006 14.0162 75.2498 14.1789 75.2498 14.3906C75.2498 14.9929 74.7909 15.2859 73.8566 15.2859C73.496 15.2859 73.119 15.2208 72.6765 15.0743C72.2339 14.9278 71.8241 14.7162 71.4799 14.472L71.398 14.4069V16.4743L71.4471 16.4906C71.7586 16.6371 72.1356 16.7348 72.5945 16.8487C73.0534 16.9301 73.4632 16.9952 73.8238 16.9952C74.922 16.9952 75.8235 16.751 76.4627 16.2138C77.1183 15.6929 77.4625 15.0255 77.4625 14.1627C77.4625 13.5603 77.2986 13.0231 76.938 12.6162C76.4627 12.2255 75.8726 11.8185 75.0203 11.4929ZM94.6892 14.1301C94.6892 16.0348 95.5907 16.9952 97.3937 16.9952C97.6887 16.9952 98.0001 16.9464 98.2952 16.8976C98.6066 16.8324 98.8361 16.751 98.9672 16.6859L98.9836 16.6696V14.9278L98.9016 14.9929C98.7705 15.0743 98.6558 15.1394 98.4591 15.1883C98.2952 15.2371 98.1476 15.2534 98.0329 15.2534C97.6068 15.2534 97.3117 15.1557 97.0986 14.9115C96.902 14.6836 96.8036 14.3092 96.8036 13.7557V8.95337H96.8364V5.07895L96.7708 5.09523L94.7384 5.69755L94.6892 5.71383V14.1301ZM91.4766 6.60918C91.4766 6.08825 91.6077 5.68128 91.8372 5.42081C92.0667 5.16034 92.4109 5.03011 92.8371 5.03011C93.1321 5.03011 93.4435 5.09523 93.7877 5.24174L93.8697 5.29058V3.45104L93.8205 3.43476C93.5255 3.33709 93.1321 3.27197 92.624 3.27197C91.9847 3.27197 91.4274 3.41848 90.9193 3.66267C90.4112 3.93941 90.0342 4.31383 89.7556 4.81848C89.477 5.30686 89.3294 5.86034 89.3294 6.49523V16.7673H91.4766V6.60918ZM90.149 9.49058H98.9836V7.74872H87.8379V9.4743H90.149V9.49058Z" fill="#737373"/>
<path id="o" d="M65.7596 7.55347C64.268 7.55347 63.0715 7.993 62.2356 8.85579C61.3833 9.71858 60.9735 10.907 60.9735 12.4046C60.9735 13.8046 61.3997 14.9442 62.2192 15.7744C63.0387 16.5884 64.1533 17.0116 65.5465 17.0116C67.0053 17.0116 68.169 16.5721 69.005 15.693C69.8573 14.8139 70.2671 13.6418 70.2671 12.193C70.2671 10.7604 69.8737 9.62091 69.0705 8.79068C68.3002 7.96044 67.1692 7.55347 65.7596 7.55347ZM67.4642 14.4884C67.0709 14.993 66.448 15.2372 65.6777 15.2372C64.9073 15.2372 64.2844 14.993 63.8419 14.4558C63.3993 13.9511 63.1863 13.2186 63.1863 12.2907C63.1863 11.3302 63.4157 10.5977 63.8419 10.0767C64.2844 9.55579 64.8909 9.29533 65.6613 9.29533C66.4152 9.29533 67.0053 9.53951 67.4315 10.0442C67.8576 10.5488 68.0871 11.2814 68.0871 12.2418C68.0543 13.2186 67.874 13.9837 67.4642 14.4884Z" fill="#737373"/>
<g id="o link">
<path id="o_2" d="M83.0846 7.55347C81.593 7.55347 80.3965 7.993 79.5605 8.85579C78.7082 9.71858 78.2985 10.907 78.2985 12.4046C78.2985 13.8046 78.7246 14.9442 79.5442 15.7744C80.3637 16.5884 81.4783 17.0116 82.8715 17.0116C84.3302 17.0116 85.494 16.5721 86.3299 15.693C87.1822 14.8139 87.592 13.6418 87.592 12.193C87.592 10.7604 87.1986 9.62091 86.3955 8.79068C85.6251 7.96044 84.4942 7.55347 83.0846 7.55347ZM84.7892 14.4884C84.3958 14.993 83.773 15.2372 83.0026 15.2372C82.2322 15.2372 81.6094 14.993 81.1668 14.4558C80.7243 13.9511 80.5112 13.2186 80.5112 12.2907C80.5112 11.3302 80.7407 10.5977 81.1668 10.0767C81.6094 9.55579 82.2158 9.29533 82.9862 9.29533C83.7402 9.29533 84.3303 9.53951 84.7564 10.0442C85.1826 10.5488 85.412 11.2814 85.412 12.2418C85.3793 13.2186 85.199 13.9837 84.7892 14.4884Z" fill="#737373"/>
</g>
<path id="Path" fill-rule="evenodd" clip-rule="evenodd" d="M0 0H10.0475V9.97907H0V0Z" fill="#F25022"/>
<path id="Path_2" fill-rule="evenodd" clip-rule="evenodd" d="M11.0966 0H21.1441V9.97907H11.0966V0Z" fill="#7FBA00"/>
<path id="Path_3" fill-rule="evenodd" clip-rule="evenodd" d="M0 11.021H10.0475V21.0001H0V11.021Z" fill="#00A4EF"/>
<path id="Path_4" fill-rule="evenodd" clip-rule="evenodd" d="M11.0966 11.021H21.1441V21.0001H11.0966V11.021Z" fill="#FFB900"/>
</g>
</g>
</g>
</svg>
