<svg width="60" height="60" viewBox="0 0 60 60" fill="none" xmlns="http://www.w3.org/2000/svg">
<g id="Teams_voice_skills_send_message 1">
<g id="Group">
<g id="Group_2">
<path id="Vector" d="M48.2143 29.6747H32.069C25.5599 29.6747 20.2833 24.398 20.2833 17.889V15.6705C20.2833 9.16141 25.5599 3.88477 32.069 3.88477H48.2143C54.7233 3.88477 60 9.16141 60 15.6705V17.889C60 24.398 54.7233 29.6747 48.2143 29.6747Z" fill="#FFD590"/>
<g id="Group_3">
<path id="Vector_2" d="M49.7734 18.7345H30.5099V22.0773H49.7734V18.7345Z" fill="#F7B548"/>
<path id="Vector_3" d="M46.4306 11.4823H30.5099V14.8251H46.4306V11.4823Z" fill="#F7B548"/>
</g>
<path id="Vector_4" d="M41.9159 28.6512L51.9284 35.7374C52.6083 36.2473 53.5714 35.7374 53.5714 34.8875V26.2719L41.9159 28.6512Z" fill="#FFD590"/>
</g>
<g id="Group_4">
<path id="Vector_5" d="M26.0712 50.5714H13.6456C6.10933 50.5714 0 44.4621 0 36.9259V36.9258C0 29.3896 6.10933 23.2803 13.6456 23.2803H26.0712C33.6074 23.2803 39.7167 29.3896 39.7167 36.9258V36.9259C39.7167 44.4621 33.6074 50.5714 26.0712 50.5714Z" fill="#BDBDE6"/>
<g id="Group_5">
<path id="Vector_6" d="M11.693 39.4121C13.066 39.4121 14.1792 38.299 14.1792 36.9259C14.1792 35.5528 13.066 34.4397 11.693 34.4397C10.3199 34.4397 9.20679 35.5528 9.20679 36.9259C9.20679 38.299 10.3199 39.4121 11.693 39.4121Z" fill="#8B8CC7"/>
<path id="Vector_7" d="M19.8584 39.4121C21.2315 39.4121 22.3446 38.299 22.3446 36.9259C22.3446 35.5528 21.2315 34.4397 19.8584 34.4397C18.4853 34.4397 17.3722 35.5528 17.3722 36.9259C17.3722 38.299 18.4853 39.4121 19.8584 39.4121Z" fill="#8B8CC7"/>
<path id="Vector_8" d="M28.0237 39.4121C29.3968 39.4121 30.5099 38.299 30.5099 36.9259C30.5099 35.5528 29.3968 34.4397 28.0237 34.4397C26.6506 34.4397 25.5375 35.5528 25.5375 36.9259C25.5375 38.299 26.6506 39.4121 28.0237 39.4121Z" fill="#8B8CC7"/>
</g>
<path id="Vector_9" d="M16.4003 49.9629L8.07165 55.9119C7.39176 56.4218 6.42859 55.9119 6.42859 55.062V46.239L16.4003 49.9629Z" fill="#BDBDE6"/>
</g>
</g>
</g>
</svg>
