<svg width="60" height="60" viewBox="0 0 60 60" fill="none" xmlns="http://www.w3.org/2000/svg">
<g id="callhistory_due_small 1">
<g id="Group">
<g id="Group_2">
<path id="Vector" d="M29.7484 10.9716C33.8603 10.9716 37.2169 14.3282 37.2169 18.4401V25.1113C37.2169 28.8456 34.1959 31.8665 30.4617 31.8665H29.0351C25.3009 31.8665 22.2799 28.8456 22.2799 25.1113V18.4401C22.2799 14.3282 25.6365 10.9716 29.7484 10.9716ZM29.7484 5.81079C22.7834 5.81079 17.1191 11.4751 17.1191 18.4401V25.1113C17.1191 31.6987 22.4478 37.0273 29.0351 37.0273H30.4197C37.0071 37.0273 42.3357 31.6987 42.3357 25.1113V18.4401C42.3777 11.4751 36.7134 5.81079 29.7484 5.81079Z" fill="url(#paint0_linear_227_1626)"/>
</g>
<g id="Group_3">
<path id="Vector_2" d="M18.5457 21.6288L13.4269 21.6707C12.294 21.6707 11.371 22.6777 11.371 23.8525L11.6227 52.174C11.6227 53.3068 12.5458 54.2299 13.6786 54.1879L45.9441 53.8942C47.077 53.8942 48 52.9292 48 51.7963L47.7483 23.5169C47.7483 22.384 46.7833 21.4609 45.6504 21.4609L41.0351 21.5029L18.5457 21.6288ZM34.6155 21.5449L24.9653 21.6288L34.6155 21.5449Z" fill="#BDBDE6"/>
</g>
<g id="Group_4">
<path id="Vector_3" d="M29.6644 38.5377C31.4255 38.5377 32.8532 37.1101 32.8532 35.3489C32.8532 33.5878 31.4255 32.1602 29.6644 32.1602C27.9033 32.1602 26.4756 33.5878 26.4756 35.3489C26.4756 37.1101 27.9033 38.5377 29.6644 38.5377Z" fill="#6264A7"/>
<path id="Vector_4" d="M29.6641 43.4466C28.6151 43.4466 27.734 42.6075 27.734 41.5166V36.8593C27.734 35.8103 28.5732 34.9292 29.6641 34.9292C30.713 34.9292 31.5941 35.7684 31.5941 36.8593V41.5166C31.5941 42.5655 30.713 43.4466 29.6641 43.4466Z" fill="#6264A7"/>
</g>
</g>
</g>
<defs>
<linearGradient id="paint0_linear_227_1626" x1="29.7447" y1="26.2036" x2="29.7447" y2="13.7453" gradientUnits="userSpaceOnUse">
<stop offset="0.2028" stop-color="#C8C8C8"/>
<stop offset="0.5776" stop-color="#D6D6D6"/>
<stop offset="1" stop-color="#E2E2E2"/>
</linearGradient>
</defs>
</svg>
