<svg width="156" height="156" viewBox="0 0 156 156" fill="none" xmlns="http://www.w3.org/2000/svg">
<g id="Group">
<g id="Group_2">
<path id="Vector" d="M155.553 88.2256L146.336 83.7146C146.71 79.3737 146.193 75.1442 144.933 71.2111L152.909 64.7792L145.365 52.9361L136.128 57.3945C133.329 54.799 130.059 52.6788 126.423 51.1924L126.606 40.9854L112.653 39.1326L110.15 49.0189C105.858 49.5474 101.788 50.929 98.1386 53.0045L90.1886 46.5839L80.1328 56.4006L86.4014 64.442C84.2692 67.9877 82.7954 72.0015 82.1614 76.3398L72.1947 78.6287L73.7663 92.5692L83.9857 92.5972C85.5302 96.5691 87.8521 100.186 90.7851 103.245L86.4558 112.488L98.4467 119.836L104.773 111.812C106.414 112.305 108.113 112.679 109.866 112.912C112.019 113.198 114.15 113.262 116.238 113.128L120.564 122.383L133.92 117.952L131.813 107.939C135.35 105.633 138.424 102.647 140.832 99.1365L150.833 101.442L155.553 88.2256Z" fill="#C8C6C4"/>
<path id="Vector_2" d="M114.135 96.8639C122.934 96.8639 130.068 89.7552 130.068 80.9863C130.068 72.2173 122.934 65.1086 114.135 65.1086C105.336 65.1086 98.2024 72.2173 98.2024 80.9863C98.2024 89.7552 105.336 96.8639 114.135 96.8639Z" fill="#B3B0AD"/>
</g>
<g id="Group_3">
<path id="Vector_3" d="M69.1148 124.751C69.341 123.059 69.3879 121.385 69.2841 119.743L78.0742 115.448L72.2801 101.446L62.9893 104.58C60.7995 102.08 58.1251 100.001 55.0766 98.4948L55.7396 88.757L40.6742 86.7563L38.7577 96.316C35.4123 96.9707 32.2777 98.28 29.501 100.123L21.3766 94.6866L12.1054 106.688L19.435 113.105C18.9003 114.667 18.5042 116.302 18.2771 118.001C18.0499 119.699 18.0027 121.38 18.1081 123.028L9.34839 127.308L15.1426 141.31L24.4121 138.183C26.6073 140.687 29.2886 142.768 32.3452 144.273L31.6831 153.999L46.7483 156L48.6672 146.429C52.0051 145.771 55.1326 144.462 57.903 142.62L66.0461 148.07L75.3172 136.068L67.9623 129.629C68.4937 128.072 68.8885 126.444 69.1148 124.751Z" fill="#E1DFDD"/>
<path id="Vector_4" d="M43.696 134.318C50.8684 134.318 56.6827 128.524 56.6827 121.376C56.6827 114.228 50.8684 108.434 43.696 108.434C36.5236 108.434 30.7092 114.228 30.7092 121.376C30.7092 128.524 36.5236 134.318 43.696 134.318Z" fill="#C8C6C4"/>
</g>
<g id="Group_4">
<path id="Vector_5" d="M60.411 24.6921C57.5109 8.42234 41.9249 -2.42384 25.5988 0.466215C9.2728 3.35627 -1.61111 18.8883 1.28896 35.1581C4.18904 51.4279 19.7749 62.274 36.1009 59.384C37.8281 59.0782 39.49 58.6231 41.0854 58.0485L51.1546 66.5514C52.2685 67.4921 53.9619 66.5814 53.7846 65.1371L52.0598 51.0948C58.7603 44.416 62.1943 34.696 60.411 24.6921Z" fill="#E2E2F6"/>
<g id="Group_5">
<path id="Vector_6" d="M33.5977 48.4999C35.7042 48.4999 37.4119 46.7981 37.4119 44.6988C37.4119 42.5995 35.7042 40.8977 33.5977 40.8977C31.4911 40.8977 29.7834 42.5995 29.7834 44.6988C29.7834 46.7981 31.4911 48.4999 33.5977 48.4999Z" fill="white"/>
<g id="Group_6">
<path id="Vector_7" d="M32.389 37.9217C30.6587 38.2278 29.0072 37.0785 28.7 35.3541L25.0102 14.6485C24.703 12.9241 25.8563 11.2784 27.5866 10.9722C29.317 10.6661 30.9684 11.8154 31.2757 13.5398L34.9654 34.2454C35.2727 35.9698 34.1194 37.6154 32.389 37.9217Z" fill="white"/>
</g>
</g>
</g>
</g>
</svg>
