<svg width="60" height="60" viewBox="0 0 60 60" fill="none" xmlns="http://www.w3.org/2000/svg">
<g id="Teams_voice_skills_send_message 1">
<g id="Group 631032">
<path id="Vector" d="M13.3279 3.29728L5.64752 49.6379L44.345 56.0516L52.0253 9.71089L13.3279 3.29728Z" fill="#F1EDE9"/>
<g id="Group">
<path id="Vector_2" d="M19.3015 0.97331L3.32324 44.9065L40.0216 58.2535L55.9999 14.3203L19.3015 0.97331Z" fill="#EAEAF3"/>
<path id="Vector_3" d="M20.7442 3.9548L8.7558 36.9177L41.0678 48.6694L53.0563 15.7065L20.7442 3.9548Z" fill="#F7C6C8"/>
<g id="Group_2">
<path id="Vector_4" d="M32.1098 13.1205C29.4463 12.6603 26.5922 14.9101 25.8717 18.2057C25.2489 21.0459 27.8147 22.6635 27.0571 25.0202C26.2994 27.3769 23.0176 27.8883 23.2082 30.8353C23.3942 33.7359 24.9467 34.5958 23.608 38.1007L27.2755 39.4301C27.2755 39.4301 27.0013 37.2221 28.3493 35.9903C29.6973 34.7585 32.9186 32.4762 31.7984 29.9661C30.6781 27.456 31.9611 25.3921 32.7978 24.653C33.6345 23.9139 35.1173 21.771 35.8331 19.4329C36.549 17.0901 35.0708 13.6318 32.1098 13.1205Z" fill="#E3646A"/>
<path id="Vector_5" d="M36.5257 20.7902C39.1288 21.85 39.4031 25.1829 38.1108 27.4699C36.9952 29.4361 34.2527 29.0317 33.5322 30.7191C32.7792 32.4854 34.8384 35.135 32.914 36.5527C30.9896 37.9705 29.4091 37.6962 28.8234 40.1041L25.4813 38.8537C25.4813 38.8537 26.8014 37.7985 26.2854 36.4179C25.7602 35.0141 25.2721 31.7742 27.4429 30.9515C29.6136 30.1287 29.8321 28.2415 29.6415 27.3583C29.451 26.4751 29.0744 24.6902 30.3434 22.7007C31.6124 20.7112 34.843 20.1069 36.5257 20.7902Z" fill="white"/>
<path id="Vector (Stroke)" fill-rule="evenodd" clip-rule="evenodd" d="M35.0736 23.4439C35.21 23.5533 35.232 23.7526 35.1226 23.889C34.519 24.6419 33.7762 25.9204 32.9958 27.436C32.2187 28.9454 31.4146 30.6694 30.6872 32.2992C29.96 33.9284 29.3106 35.4607 28.843 36.5859C28.6092 37.1484 28.4209 37.609 28.2911 37.9288C28.2262 38.0887 28.176 38.2135 28.1419 38.2981L28.1033 38.3945L28.0905 38.4267C28.0904 38.4267 28.0903 38.4271 27.7961 38.31C27.5019 38.1929 27.5019 38.1928 27.5019 38.1927L27.5152 38.1593L27.5543 38.062C27.5885 37.9767 27.6391 37.8513 27.7043 37.6907C27.8346 37.3694 28.0236 36.9072 28.2581 36.3428C28.7272 35.2143 29.3787 33.6767 30.1088 32.041C30.8386 30.4059 31.6481 28.6701 32.4328 27.1461C33.2143 25.6281 33.9816 24.2996 34.6284 23.4929C34.7378 23.3564 34.9371 23.3345 35.0736 23.4439ZM27.6789 38.6042C27.5164 38.5395 27.4372 38.3552 27.5019 38.1927L27.7961 38.31L28.0903 38.4271C28.0256 38.5896 27.8414 38.6689 27.6789 38.6042Z" fill="#EE8F94"/>
</g>
<path id="Vector_6" d="M32.0726 39.6207L22.5156 36.153C22.074 35.9903 21.6046 36.3157 21.5906 36.7852L21.4837 41.5869L29.3719 44.455L32.3748 40.6991C32.6723 40.3272 32.5142 39.7787 32.0726 39.6207Z" fill="#B3AFAB"/>
</g>
</g>
</g>
</svg>
